<?xml version="1.0" encoding="UTF-8"?>
<svg version="1.1" xmlns="http://www.w3.org/2000/svg" width="1000" height="288">
<path d="M0,0 L9,0 L9,1 L10,1 L10,8 L8,8 L8,7 L2,7 L2,8 L0,8 L0,9 L-1,9 L-1,10 L-2,10 L-2,11 L-3,11 L-3,15 L-4,15 L-4,25 L-3,25 L-3,26 L8,26 L8,33 L-4,33 L-4,77 L-12,77 L-12,33 L-20,33 L-20,32 L-21,32 L-21,26 L-12,26 L-12,13 L-11,13 L-11,9 L-10,9 L-10,7 L-9,7 L-9,6 L-8,6 L-8,5 L-7,5 L-7,4 L-6,4 L-6,3 L-5,3 L-5,2 L-3,2 L-3,1 L0,1 Z " fill="#000000" transform="translate(386,7)"/>
<path d="M0,0 L6,0 L6,1 L7,1 L7,2 L8,2 L8,4 L9,4 L9,6 L8,6 L8,8 L7,8 L7,9 L6,9 L6,10 L4,10 L4,11 L2,11 L2,10 L0,10 L0,9 L-1,9 L-1,8 L-2,8 L-2,2 L-1,2 L-1,1 L0,1 Z " fill="#000000" transform="translate(104,9)"/>
<path d="M0,0 L12,0 L12,2 L13,2 L13,5 L14,5 L14,7 L15,7 L15,9 L16,9 L16,11 L17,11 L17,14 L18,14 L18,16 L19,16 L19,18 L20,18 L20,21 L21,21 L21,23 L22,23 L22,25 L23,25 L23,27 L24,27 L24,30 L25,30 L25,32 L26,32 L26,34 L27,34 L27,37 L28,37 L28,39 L29,39 L29,41 L30,41 L30,43 L31,43 L31,46 L32,46 L32,48 L33,48 L33,50 L34,50 L34,53 L35,53 L35,55 L36,55 L36,58 L37,58 L37,57 L38,57 L38,55 L39,55 L39,52 L40,52 L40,50 L41,50 L41,48 L42,48 L42,45 L43,45 L43,43 L44,43 L44,41 L45,41 L45,39 L46,39 L46,36 L47,36 L47,34 L48,34 L48,32 L49,32 L49,30 L50,30 L50,27 L51,27 L51,25 L52,25 L52,23 L53,23 L53,21 L54,21 L54,19 L55,19 L55,16 L56,16 L56,14 L57,14 L57,12 L58,12 L58,10 L59,10 L59,7 L60,7 L60,5 L61,5 L61,3 L62,3 L62,1 L63,1 L63,0 L73,0 L73,72 L65,72 L65,13 L64,13 L64,16 L63,16 L63,18 L62,18 L62,21 L61,21 L61,23 L60,23 L60,25 L59,25 L59,27 L58,27 L58,30 L57,30 L57,32 L56,32 L56,34 L55,34 L55,37 L54,37 L54,39 L53,39 L53,41 L52,41 L52,43 L51,43 L51,46 L50,46 L50,48 L49,48 L49,50 L48,50 L48,52 L47,52 L47,55 L46,55 L46,57 L45,57 L45,59 L44,59 L44,61 L43,61 L43,64 L42,64 L42,66 L41,66 L41,68 L40,68 L40,70 L39,70 L39,72 L35,72 L35,71 L34,71 L34,69 L33,69 L33,67 L32,67 L32,64 L31,64 L31,62 L30,62 L30,60 L29,60 L29,58 L28,58 L28,55 L27,55 L27,53 L26,53 L26,51 L25,51 L25,49 L24,49 L24,46 L23,46 L23,44 L22,44 L22,42 L21,42 L21,40 L20,40 L20,37 L19,37 L19,35 L18,35 L18,33 L17,33 L17,31 L16,31 L16,28 L15,28 L15,26 L14,26 L14,24 L13,24 L13,22 L12,22 L12,19 L11,19 L11,17 L10,17 L10,14 L9,14 L9,13 L8,13 L8,16 L9,16 L9,72 L0,72 Z " fill="#000000" transform="translate(12,12)"/>
<path d="M0,0 L4,0 L4,15 L17,15 L17,21 L16,21 L16,22 L4,22 L4,56 L5,56 L5,58 L6,58 L6,59 L8,59 L8,60 L15,60 L15,59 L17,59 L17,65 L16,65 L16,66 L14,66 L14,67 L4,67 L4,66 L2,66 L2,65 L0,65 L0,64 L-1,64 L-1,63 L-2,63 L-2,61 L-3,61 L-3,59 L-4,59 L-4,54 L-5,54 L-5,22 L-13,22 L-13,15 L-5,15 L-5,2 L-3,2 L-3,1 L0,1 Z " fill="#000000" transform="translate(412,18)"/>
<path d="M0,0 L9,0 L9,1 L12,1 L12,2 L14,2 L14,3 L15,3 L15,4 L16,4 L16,5 L17,5 L17,6 L18,6 L18,7 L19,7 L19,8 L20,8 L20,10 L21,10 L21,12 L22,12 L22,24 L21,24 L21,26 L20,26 L20,28 L19,28 L19,29 L18,29 L18,30 L17,30 L17,31 L16,31 L16,32 L15,32 L15,33 L14,33 L14,34 L12,34 L12,35 L9,35 L9,36 L-1,36 L-1,35 L-3,35 L-3,34 L-5,34 L-5,33 L-7,33 L-7,32 L-8,32 L-8,31 L-9,31 L-9,30 L-10,30 L-10,28 L-11,28 L-11,27 L-12,27 L-12,25 L-13,25 L-13,21 L-14,21 L-14,15 L-13,15 L-13,12 L-12,12 L-12,9 L-11,9 L-11,8 L-10,8 L-10,7 L-9,7 L-9,5 L-8,5 L-8,4 L-6,4 L-6,3 L-5,3 L-5,2 L-3,2 L-3,1 L0,1 Z M0,2 L0,3 L-3,3 L-3,4 L-4,4 L-4,5 L-6,5 L-6,6 L-7,6 L-7,7 L-8,7 L-8,8 L-9,8 L-9,10 L-10,10 L-10,12 L-11,12 L-11,15 L-12,15 L-12,21 L-11,21 L-11,25 L-10,25 L-10,26 L-9,26 L-9,28 L-8,28 L-8,29 L-7,29 L-7,30 L-6,30 L-6,31 L-5,31 L-5,32 L-3,32 L-3,33 L-1,33 L-1,34 L10,34 L10,33 L12,33 L12,32 L13,32 L13,31 L15,31 L15,30 L16,30 L16,29 L17,29 L17,28 L18,28 L18,26 L19,26 L19,24 L20,24 L20,20 L21,20 L21,16 L20,16 L20,12 L19,12 L19,10 L18,10 L18,9 L17,9 L17,7 L16,7 L16,6 L15,6 L15,5 L13,5 L13,4 L12,4 L12,3 L9,3 L9,2 Z " fill="#000000" transform="translate(449,20)"/>
<path d="M0,0 L7,0 L7,1 L11,1 L11,2 L12,2 L12,3 L13,3 L13,4 L14,4 L14,9 L13,9 L13,11 L12,11 L12,12 L9,12 L9,14 L10,14 L10,15 L11,15 L11,16 L12,16 L12,18 L13,18 L13,20 L14,20 L14,22 L15,22 L15,23 L11,23 L11,21 L10,21 L10,19 L9,19 L9,17 L8,17 L8,15 L7,15 L7,14 L2,14 L2,23 L-1,23 L-1,1 L0,1 Z M2,3 L2,11 L9,11 L9,10 L10,10 L10,9 L11,9 L11,5 L10,5 L10,4 L9,4 L9,3 Z " fill="#000000" transform="translate(447,26)"/>
<path d="M0,0 L8,0 L8,1 L12,1 L12,2 L15,2 L15,3 L16,3 L16,11 L14,11 L14,10 L13,10 L13,9 L10,9 L10,8 L6,8 L6,7 L1,7 L1,8 L-3,8 L-3,9 L-5,9 L-5,10 L-7,10 L-7,11 L-8,11 L-8,12 L-9,12 L-9,13 L-10,13 L-10,14 L-11,14 L-11,16 L-12,16 L-12,18 L-13,18 L-13,21 L-14,21 L-14,35 L-13,35 L-13,38 L-12,38 L-12,39 L-11,39 L-11,41 L-10,41 L-10,42 L-9,42 L-9,43 L-8,43 L-8,44 L-6,44 L-6,45 L-5,45 L-5,46 L-2,46 L-2,47 L8,47 L8,46 L11,46 L11,45 L13,45 L13,44 L14,44 L14,43 L16,43 L16,50 L15,50 L15,51 L14,51 L14,52 L11,52 L11,53 L8,53 L8,54 L-4,54 L-4,53 L-8,53 L-8,52 L-10,52 L-10,51 L-12,51 L-12,50 L-13,50 L-13,49 L-15,49 L-15,48 L-16,48 L-16,47 L-17,47 L-17,45 L-18,45 L-18,44 L-19,44 L-19,42 L-20,42 L-20,40 L-21,40 L-21,38 L-22,38 L-22,34 L-23,34 L-23,23 L-22,23 L-22,18 L-21,18 L-21,15 L-20,15 L-20,13 L-19,13 L-19,12 L-18,12 L-18,10 L-17,10 L-17,9 L-16,9 L-16,8 L-15,8 L-15,7 L-14,7 L-14,6 L-13,6 L-13,5 L-12,5 L-12,4 L-10,4 L-10,3 L-8,3 L-8,2 L-5,2 L-5,1 L0,1 Z " fill="#000000" transform="translate(147,31)"/>
<path d="M0,0 L8,0 L8,1 L12,1 L12,2 L15,2 L15,3 L17,3 L17,4 L19,4 L19,5 L20,5 L20,6 L21,6 L21,7 L22,7 L22,8 L23,8 L23,9 L24,9 L24,11 L25,11 L25,13 L26,13 L26,16 L27,16 L27,19 L28,19 L28,34 L27,34 L27,38 L26,38 L26,40 L25,40 L25,42 L24,42 L24,44 L23,44 L23,45 L22,45 L22,46 L21,46 L21,47 L20,47 L20,48 L19,48 L19,49 L18,49 L18,50 L17,50 L17,51 L15,51 L15,52 L12,52 L12,53 L9,53 L9,54 L-3,54 L-3,53 L-7,53 L-7,52 L-9,52 L-9,51 L-11,51 L-11,50 L-13,50 L-13,49 L-14,49 L-14,48 L-15,48 L-15,47 L-16,47 L-16,46 L-17,46 L-17,45 L-18,45 L-18,43 L-19,43 L-19,41 L-20,41 L-20,39 L-21,39 L-21,35 L-22,35 L-22,20 L-21,20 L-21,16 L-20,16 L-20,14 L-19,14 L-19,12 L-18,12 L-18,10 L-17,10 L-17,9 L-16,9 L-16,8 L-15,8 L-15,7 L-14,7 L-14,6 L-13,6 L-13,5 L-12,5 L-12,4 L-10,4 L-10,3 L-8,3 L-8,2 L-5,2 L-5,1 L0,1 Z M0,7 L0,8 L-4,8 L-4,9 L-5,9 L-5,10 L-7,10 L-7,11 L-8,11 L-8,12 L-9,12 L-9,13 L-10,13 L-10,14 L-11,14 L-11,16 L-12,16 L-12,19 L-13,19 L-13,23 L-14,23 L-14,32 L-13,32 L-13,36 L-12,36 L-12,38 L-11,38 L-11,40 L-10,40 L-10,41 L-9,41 L-9,43 L-7,43 L-7,44 L-6,44 L-6,45 L-4,45 L-4,46 L-1,46 L-1,47 L8,47 L8,46 L11,46 L11,45 L12,45 L12,44 L14,44 L14,43 L15,43 L15,42 L16,42 L16,40 L17,40 L17,39 L18,39 L18,36 L19,36 L19,31 L20,31 L20,24 L19,24 L19,18 L18,18 L18,16 L17,16 L17,14 L16,14 L16,13 L15,13 L15,11 L13,11 L13,10 L12,10 L12,9 L10,9 L10,8 L6,8 L6,7 Z " fill="#000000" transform="translate(228,31)"/>
<path d="M0,0 L8,0 L8,1 L13,1 L13,2 L16,2 L16,11 L15,11 L15,10 L13,10 L13,9 L11,9 L11,8 L6,8 L6,7 L0,7 L0,8 L-3,8 L-3,9 L-5,9 L-5,10 L-6,10 L-6,11 L-7,11 L-7,18 L-6,18 L-6,19 L-5,19 L-5,20 L-4,20 L-4,21 L-2,21 L-2,22 L0,22 L0,23 L2,23 L2,24 L5,24 L5,25 L7,25 L7,26 L9,26 L9,27 L11,27 L11,28 L13,28 L13,29 L14,29 L14,30 L15,30 L15,31 L16,31 L16,32 L17,32 L17,35 L18,35 L18,44 L17,44 L17,46 L16,46 L16,47 L15,47 L15,48 L14,48 L14,49 L13,49 L13,50 L12,50 L12,51 L10,51 L10,52 L8,52 L8,53 L4,53 L4,54 L-8,54 L-8,53 L-12,53 L-12,52 L-15,52 L-15,51 L-16,51 L-16,42 L-15,42 L-15,43 L-14,43 L-14,44 L-12,44 L-12,45 L-10,45 L-10,46 L-6,46 L-6,47 L4,47 L4,46 L6,46 L6,45 L8,45 L8,44 L9,44 L9,42 L10,42 L10,38 L9,38 L9,36 L8,36 L8,35 L7,35 L7,34 L6,34 L6,33 L4,33 L4,32 L2,32 L2,31 L-1,31 L-1,30 L-3,30 L-3,29 L-6,29 L-6,28 L-8,28 L-8,27 L-10,27 L-10,26 L-11,26 L-11,25 L-12,25 L-12,24 L-13,24 L-13,23 L-14,23 L-14,21 L-15,21 L-15,18 L-16,18 L-16,12 L-15,12 L-15,9 L-14,9 L-14,8 L-13,8 L-13,6 L-12,6 L-12,5 L-10,5 L-10,4 L-9,4 L-9,3 L-7,3 L-7,2 L-4,2 L-4,1 L0,1 Z " fill="#000000" transform="translate(282,31)"/>
<path d="M0,0 L8,0 L8,1 L13,1 L13,2 L16,2 L16,3 L18,3 L18,4 L19,4 L19,5 L20,5 L20,6 L21,6 L21,7 L22,7 L22,8 L23,8 L23,9 L24,9 L24,10 L25,10 L25,12 L26,12 L26,14 L27,14 L27,17 L28,17 L28,23 L29,23 L29,30 L28,30 L28,36 L27,36 L27,39 L26,39 L26,41 L25,41 L25,43 L24,43 L24,45 L23,45 L23,46 L22,46 L22,47 L21,47 L21,48 L20,48 L20,49 L19,49 L19,50 L17,50 L17,51 L15,51 L15,52 L13,52 L13,53 L9,53 L9,54 L-3,54 L-3,53 L-6,53 L-6,52 L-9,52 L-9,51 L-11,51 L-11,50 L-12,50 L-12,49 L-13,49 L-13,48 L-14,48 L-14,47 L-15,47 L-15,46 L-16,46 L-16,45 L-17,45 L-17,44 L-18,44 L-18,42 L-19,42 L-19,40 L-20,40 L-20,37 L-21,37 L-21,33 L-22,33 L-22,22 L-21,22 L-21,18 L-20,18 L-20,15 L-19,15 L-19,13 L-18,13 L-18,11 L-17,11 L-17,9 L-16,9 L-16,8 L-15,8 L-15,7 L-14,7 L-14,6 L-13,6 L-13,5 L-11,5 L-11,4 L-10,4 L-10,3 L-7,3 L-7,2 L-5,2 L-5,1 L0,1 Z M1,7 L1,8 L-3,8 L-3,9 L-5,9 L-5,10 L-6,10 L-6,11 L-8,11 L-8,12 L-9,12 L-9,14 L-10,14 L-10,15 L-11,15 L-11,17 L-12,17 L-12,20 L-13,20 L-13,35 L-12,35 L-12,37 L-11,37 L-11,39 L-10,39 L-10,41 L-9,41 L-9,42 L-8,42 L-8,43 L-7,43 L-7,44 L-5,44 L-5,45 L-4,45 L-4,46 L-1,46 L-1,47 L8,47 L8,46 L11,46 L11,45 L13,45 L13,44 L14,44 L14,43 L15,43 L15,42 L16,42 L16,41 L17,41 L17,39 L18,39 L18,37 L19,37 L19,34 L20,34 L20,20 L19,20 L19,17 L18,17 L18,15 L17,15 L17,13 L16,13 L16,12 L15,12 L15,11 L14,11 L14,10 L12,10 L12,9 L10,9 L10,8 L7,8 L7,7 Z " fill="#000000" transform="translate(331,31)"/>
<path d="M0,0 L9,0 L9,9 L8,9 L8,8 L5,8 L5,7 L0,7 L0,8 L-2,8 L-2,9 L-4,9 L-4,10 L-5,10 L-5,11 L-6,11 L-6,13 L-7,13 L-7,14 L-8,14 L-8,17 L-9,17 L-9,21 L-10,21 L-10,52 L-18,52 L-18,1 L-10,1 L-10,10 L-9,10 L-9,8 L-8,8 L-8,6 L-7,6 L-7,5 L-6,5 L-6,4 L-5,4 L-5,3 L-4,3 L-4,2 L-2,2 L-2,1 L0,1 Z " fill="#000000" transform="translate(193,32)"/>
<path d="M0,0 L8,0 L8,51 L0,51 Z " fill="#000000" transform="translate(103,33)"/>
<path d="M0,0 L7,0 L7,1 L9,1 L9,2 L11,2 L11,3 L13,3 L13,4 L14,4 L14,6 L15,6 L15,7 L16,7 L16,9 L17,9 L17,18 L16,18 L16,21 L15,21 L15,22 L14,22 L14,23 L13,23 L13,24 L12,24 L12,25 L11,25 L11,26 L9,26 L9,27 L5,27 L5,28 L1,28 L1,27 L-2,27 L-2,26 L-4,26 L-4,25 L-6,25 L-6,24 L-7,24 L-7,23 L-8,23 L-8,21 L-9,21 L-9,19 L-10,19 L-10,9 L-9,9 L-9,7 L-8,7 L-8,5 L-7,5 L-7,4 L-6,4 L-6,3 L-5,3 L-5,2 L-3,2 L-3,1 L0,1 Z " fill="#000000" transform="translate(204,92)"/>
<path d="M0,0 L59,0 L59,1 L71,1 L71,2 L77,2 L77,3 L82,3 L82,4 L87,4 L87,5 L90,5 L90,6 L93,6 L93,7 L96,7 L96,8 L99,8 L99,9 L101,9 L101,10 L103,10 L103,11 L105,11 L105,12 L107,12 L107,13 L109,13 L109,14 L111,14 L111,15 L112,15 L112,16 L114,16 L114,17 L115,17 L115,18 L117,18 L117,19 L118,19 L118,20 L119,20 L119,21 L120,21 L120,22 L121,22 L121,23 L122,23 L122,24 L123,24 L123,25 L124,25 L124,26 L125,26 L125,27 L126,27 L126,28 L127,28 L127,29 L128,29 L128,30 L129,30 L129,32 L130,32 L130,33 L131,33 L131,35 L132,35 L132,36 L133,36 L133,38 L134,38 L134,40 L135,40 L135,42 L136,42 L136,44 L137,44 L137,46 L138,46 L138,49 L139,49 L139,52 L140,52 L140,55 L141,55 L141,58 L142,58 L142,63 L143,63 L143,69 L144,69 L144,78 L145,78 L145,97 L144,97 L144,106 L143,106 L143,111 L142,111 L142,115 L141,115 L141,119 L140,119 L140,122 L139,122 L139,125 L138,125 L138,127 L137,127 L137,130 L136,130 L136,132 L135,132 L135,134 L134,134 L134,136 L133,136 L133,137 L132,137 L132,139 L131,139 L131,141 L130,141 L130,142 L129,142 L129,144 L128,144 L128,145 L127,145 L127,146 L126,146 L126,147 L125,147 L125,149 L124,149 L124,150 L123,150 L123,151 L122,151 L122,152 L121,152 L121,153 L120,153 L120,154 L119,154 L119,155 L118,155 L118,156 L117,156 L117,157 L116,157 L116,158 L115,158 L115,159 L113,159 L113,160 L112,160 L112,161 L111,161 L111,162 L110,162 L110,163 L108,163 L108,164 L107,164 L107,165 L105,165 L105,166 L103,166 L103,167 L102,167 L102,168 L100,168 L100,169 L98,169 L98,170 L96,170 L96,171 L94,171 L94,172 L91,172 L91,173 L89,173 L89,174 L86,174 L86,175 L83,175 L83,176 L79,176 L79,177 L75,177 L75,178 L70,178 L70,179 L63,179 L63,180 L0,180 Z M21,20 L21,160 L22,160 L22,161 L51,161 L51,160 L63,160 L63,159 L69,159 L69,158 L74,158 L74,157 L77,157 L77,156 L80,156 L80,155 L83,155 L83,154 L85,154 L85,153 L87,153 L87,152 L89,152 L89,151 L91,151 L91,150 L92,150 L92,149 L94,149 L94,148 L95,148 L95,147 L97,147 L97,146 L98,146 L98,145 L99,145 L99,144 L101,144 L101,143 L102,143 L102,142 L103,142 L103,141 L104,141 L104,140 L105,140 L105,139 L106,139 L106,137 L107,137 L107,136 L108,136 L108,135 L109,135 L109,133 L110,133 L110,132 L111,132 L111,130 L112,130 L112,129 L113,129 L113,127 L114,127 L114,125 L115,125 L115,123 L116,123 L116,121 L117,121 L117,118 L118,118 L118,115 L119,115 L119,111 L120,111 L120,106 L121,106 L121,99 L122,99 L122,78 L121,78 L121,71 L120,71 L120,66 L119,66 L119,62 L118,62 L118,59 L117,59 L117,56 L116,56 L116,54 L115,54 L115,52 L114,52 L114,50 L113,50 L113,48 L112,48 L112,47 L111,47 L111,45 L110,45 L110,44 L109,44 L109,42 L108,42 L108,41 L107,41 L107,40 L106,40 L106,39 L105,39 L105,38 L104,38 L104,37 L103,37 L103,36 L102,36 L102,35 L101,35 L101,34 L99,34 L99,33 L98,33 L98,32 L96,32 L96,31 L95,31 L95,30 L93,30 L93,29 L91,29 L91,28 L89,28 L89,27 L87,27 L87,26 L84,26 L84,25 L81,25 L81,24 L78,24 L78,23 L74,23 L74,22 L68,22 L68,21 L59,21 L59,20 Z " fill="#000000" transform="translate(13,100)"/>
<path d="M0,0 L26,0 L26,1 L27,1 L27,2 L28,2 L28,4 L29,4 L29,6 L30,6 L30,7 L31,7 L31,9 L32,9 L32,11 L33,11 L33,13 L34,13 L34,14 L35,14 L35,16 L36,16 L36,18 L37,18 L37,19 L38,19 L38,21 L39,21 L39,23 L40,23 L40,25 L41,25 L41,26 L42,26 L42,28 L43,28 L43,30 L44,30 L44,31 L45,31 L45,33 L46,33 L46,35 L47,35 L47,37 L48,37 L48,38 L49,38 L49,40 L50,40 L50,42 L51,42 L51,44 L52,44 L52,45 L53,45 L53,47 L54,47 L54,49 L55,49 L55,50 L56,50 L56,52 L57,52 L57,54 L58,54 L58,56 L59,56 L59,57 L60,57 L60,59 L61,59 L61,61 L62,61 L62,62 L63,62 L63,64 L64,64 L64,66 L65,66 L65,68 L66,68 L66,70 L67,70 L67,72 L68,72 L68,74 L69,74 L69,75 L70,75 L70,73 L71,73 L71,71 L72,71 L72,70 L73,70 L73,68 L74,68 L74,66 L75,66 L75,64 L76,64 L76,62 L77,62 L77,61 L78,61 L78,59 L79,59 L79,58 L80,58 L80,56 L81,56 L81,54 L82,54 L82,53 L83,53 L83,51 L84,51 L84,49 L85,49 L85,48 L86,48 L86,46 L87,46 L87,44 L88,44 L88,43 L89,43 L89,41 L90,41 L90,40 L91,40 L91,38 L92,38 L92,36 L93,36 L93,35 L94,35 L94,33 L95,33 L95,31 L96,31 L96,30 L97,30 L97,28 L98,28 L98,26 L99,26 L99,25 L100,25 L100,23 L101,23 L101,22 L102,22 L102,20 L103,20 L103,18 L104,18 L104,17 L105,17 L105,15 L106,15 L106,13 L107,13 L107,12 L108,12 L108,10 L109,10 L109,8 L110,8 L110,7 L111,7 L111,5 L112,5 L112,4 L113,4 L113,2 L114,2 L114,1 L115,1 L115,0 L139,0 L139,2 L138,2 L138,4 L137,4 L137,5 L136,5 L136,7 L135,7 L135,9 L134,9 L134,10 L133,10 L133,12 L132,12 L132,13 L131,13 L131,15 L130,15 L130,16 L129,16 L129,18 L128,18 L128,20 L127,20 L127,21 L126,21 L126,23 L125,23 L125,24 L124,24 L124,26 L123,26 L123,27 L122,27 L122,29 L121,29 L121,31 L120,31 L120,32 L119,32 L119,34 L118,34 L118,35 L117,35 L117,37 L116,37 L116,38 L115,38 L115,40 L114,40 L114,42 L113,42 L113,43 L112,43 L112,45 L111,45 L111,46 L110,46 L110,48 L109,48 L109,50 L108,50 L108,51 L107,51 L107,53 L106,53 L106,54 L105,54 L105,56 L104,56 L104,57 L103,57 L103,59 L102,59 L102,61 L101,61 L101,62 L100,62 L100,64 L99,64 L99,65 L98,65 L98,67 L97,67 L97,68 L96,68 L96,70 L95,70 L95,72 L94,72 L94,73 L93,73 L93,75 L92,75 L92,76 L91,76 L91,78 L90,78 L90,79 L89,79 L89,81 L88,81 L88,83 L87,83 L87,84 L86,84 L86,86 L85,86 L85,87 L84,87 L84,89 L83,89 L83,90 L84,90 L84,92 L85,92 L85,93 L86,93 L86,95 L87,95 L87,97 L88,97 L88,98 L89,98 L89,100 L90,100 L90,101 L91,101 L91,103 L92,103 L92,104 L93,104 L93,106 L94,106 L94,108 L95,108 L95,109 L96,109 L96,111 L97,111 L97,112 L98,112 L98,114 L99,114 L99,116 L100,116 L100,117 L101,117 L101,119 L102,119 L102,120 L103,120 L103,122 L104,122 L104,123 L105,123 L105,125 L106,125 L106,127 L107,127 L107,128 L108,128 L108,130 L109,130 L109,131 L110,131 L110,133 L111,133 L111,135 L112,135 L112,136 L113,136 L113,138 L114,138 L114,139 L115,139 L115,141 L116,141 L116,142 L117,142 L117,144 L118,144 L118,146 L119,146 L119,147 L120,147 L120,149 L121,149 L121,150 L122,150 L122,152 L123,152 L123,153 L124,153 L124,155 L125,155 L125,157 L126,157 L126,158 L127,158 L127,160 L128,160 L128,161 L129,161 L129,163 L130,163 L130,165 L131,165 L131,166 L132,166 L132,168 L133,168 L133,169 L134,169 L134,171 L135,171 L135,172 L136,172 L136,174 L137,174 L137,176 L138,176 L138,177 L139,177 L139,179 L140,179 L140,180 L113,180 L113,178 L112,178 L112,177 L111,177 L111,175 L110,175 L110,173 L109,173 L109,172 L108,172 L108,170 L107,170 L107,168 L106,168 L106,167 L105,167 L105,165 L104,165 L104,163 L103,163 L103,162 L102,162 L102,160 L101,160 L101,158 L100,158 L100,157 L99,157 L99,155 L98,155 L98,153 L97,153 L97,152 L96,152 L96,150 L95,150 L95,148 L94,148 L94,147 L93,147 L93,145 L92,145 L92,143 L91,143 L91,142 L90,142 L90,140 L89,140 L89,138 L88,138 L88,137 L87,137 L87,135 L86,135 L86,133 L85,133 L85,132 L84,132 L84,130 L83,130 L83,128 L82,128 L82,127 L81,127 L81,125 L80,125 L80,123 L79,123 L79,122 L78,122 L78,120 L77,120 L77,118 L76,118 L76,117 L75,117 L75,115 L74,115 L74,114 L73,114 L73,112 L72,112 L72,110 L71,110 L71,108 L70,108 L70,106 L69,106 L69,104 L68,104 L68,105 L67,105 L67,107 L66,107 L66,109 L65,109 L65,111 L64,111 L64,113 L63,113 L63,114 L62,114 L62,116 L61,116 L61,118 L60,118 L60,119 L59,119 L59,121 L58,121 L58,122 L57,122 L57,124 L56,124 L56,126 L55,126 L55,127 L54,127 L54,129 L53,129 L53,131 L52,131 L52,132 L51,132 L51,134 L50,134 L50,135 L49,135 L49,137 L48,137 L48,139 L47,139 L47,140 L46,140 L46,142 L45,142 L45,143 L44,143 L44,145 L43,145 L43,147 L42,147 L42,148 L41,148 L41,150 L40,150 L40,152 L39,152 L39,153 L38,153 L38,155 L37,155 L37,156 L36,156 L36,158 L35,158 L35,160 L34,160 L34,161 L33,161 L33,163 L32,163 L32,164 L31,164 L31,166 L30,166 L30,168 L29,168 L29,169 L28,169 L28,171 L27,171 L27,172 L26,172 L26,174 L25,174 L25,176 L24,176 L24,177 L23,177 L23,179 L22,179 L22,180 L-5,180 L-5,179 L-4,179 L-4,178 L-3,178 L-3,176 L-2,176 L-2,175 L-1,175 L-1,173 L0,173 L0,172 L1,172 L1,170 L2,170 L2,169 L3,169 L3,167 L4,167 L4,166 L5,166 L5,164 L6,164 L6,163 L7,163 L7,161 L8,161 L8,160 L9,160 L9,158 L10,158 L10,157 L11,157 L11,155 L12,155 L12,154 L13,154 L13,152 L14,152 L14,151 L15,151 L15,149 L16,149 L16,148 L17,148 L17,146 L18,146 L18,145 L19,145 L19,143 L20,143 L20,142 L21,142 L21,140 L22,140 L22,139 L23,139 L23,137 L24,137 L24,136 L25,136 L25,134 L26,134 L26,133 L27,133 L27,131 L28,131 L28,130 L29,130 L29,128 L30,128 L30,127 L31,127 L31,125 L32,125 L32,124 L33,124 L33,122 L34,122 L34,121 L35,121 L35,119 L36,119 L36,118 L37,118 L37,116 L38,116 L38,115 L39,115 L39,113 L40,113 L40,112 L41,112 L41,110 L42,110 L42,109 L43,109 L43,107 L44,107 L44,106 L45,106 L45,104 L46,104 L46,103 L47,103 L47,101 L48,101 L48,100 L49,100 L49,98 L50,98 L50,97 L51,97 L51,95 L52,95 L52,94 L53,94 L53,92 L54,92 L54,91 L55,91 L55,89 L54,89 L54,87 L53,87 L53,86 L52,86 L52,84 L51,84 L51,83 L50,83 L50,81 L49,81 L49,79 L48,79 L48,78 L47,78 L47,76 L46,76 L46,74 L45,74 L45,73 L44,73 L44,71 L43,71 L43,70 L42,70 L42,68 L41,68 L41,66 L40,66 L40,65 L39,65 L39,63 L38,63 L38,62 L37,62 L37,60 L36,60 L36,58 L35,58 L35,57 L34,57 L34,55 L33,55 L33,54 L32,54 L32,52 L31,52 L31,50 L30,50 L30,49 L29,49 L29,47 L28,47 L28,45 L27,45 L27,44 L26,44 L26,42 L25,42 L25,41 L24,41 L24,39 L23,39 L23,37 L22,37 L22,36 L21,36 L21,34 L20,34 L20,33 L19,33 L19,31 L18,31 L18,29 L17,29 L17,28 L16,28 L16,26 L15,26 L15,25 L14,25 L14,23 L13,23 L13,21 L12,21 L12,20 L11,20 L11,18 L10,18 L10,16 L9,16 L9,15 L8,15 L8,13 L7,13 L7,12 L6,12 L6,10 L5,10 L5,8 L4,8 L4,7 L3,7 L3,5 L2,5 L2,4 L1,4 L1,2 L0,2 Z " fill="#000000" transform="translate(705,100)"/>
<path d="M0,0 L11,0 L11,1 L14,1 L14,2 L16,2 L16,3 L18,3 L18,4 L19,4 L19,5 L20,5 L20,6 L21,6 L21,7 L22,7 L22,8 L23,8 L23,9 L24,9 L24,10 L25,10 L25,12 L26,12 L26,15 L27,15 L27,20 L28,20 L28,24 L27,24 L27,28 L26,28 L26,31 L25,31 L25,33 L24,33 L24,34 L23,34 L23,36 L22,36 L22,37 L21,37 L21,38 L20,38 L20,39 L18,39 L18,40 L17,40 L17,41 L15,41 L15,42 L12,42 L12,43 L0,43 L0,42 L-3,42 L-3,41 L-5,41 L-5,40 L-7,40 L-7,39 L-8,39 L-8,38 L-9,38 L-9,37 L-10,37 L-10,36 L-11,36 L-11,35 L-12,35 L-12,33 L-13,33 L-13,32 L-14,32 L-14,29 L-15,29 L-15,26 L-16,26 L-16,17 L-15,17 L-15,14 L-14,14 L-14,12 L-13,12 L-13,10 L-12,10 L-12,8 L-11,8 L-11,7 L-10,7 L-10,6 L-9,6 L-9,5 L-8,5 L-8,4 L-6,4 L-6,3 L-5,3 L-5,2 L-3,2 L-3,1 L0,1 Z M2,2 L2,3 L-2,3 L-2,4 L-4,4 L-4,5 L-5,5 L-5,6 L-6,6 L-6,7 L-8,7 L-8,8 L-9,8 L-9,10 L-10,10 L-10,11 L-11,11 L-11,13 L-12,13 L-12,15 L-13,15 L-13,20 L-14,20 L-14,24 L-13,24 L-13,28 L-12,28 L-12,31 L-11,31 L-11,32 L-10,32 L-10,34 L-9,34 L-9,35 L-8,35 L-8,36 L-7,36 L-7,37 L-5,37 L-5,38 L-4,38 L-4,39 L-2,39 L-2,40 L1,40 L1,41 L10,41 L10,40 L14,40 L14,39 L15,39 L15,38 L17,38 L17,37 L18,37 L18,36 L19,36 L19,35 L20,35 L20,34 L21,34 L21,33 L22,33 L22,32 L23,32 L23,30 L24,30 L24,27 L25,27 L25,16 L24,16 L24,13 L23,13 L23,12 L22,12 L22,10 L21,10 L21,9 L20,9 L20,8 L19,8 L19,7 L18,7 L18,6 L17,6 L17,5 L15,5 L15,4 L13,4 L13,3 L10,3 L10,2 Z " fill="#000000" transform="translate(876,101)"/>
<path d="M0,0 L14,0 L14,1 L15,1 L15,2 L17,2 L17,4 L18,4 L18,10 L17,10 L17,12 L16,12 L16,13 L14,13 L14,14 L12,14 L12,15 L13,15 L13,16 L14,16 L14,18 L15,18 L15,20 L16,20 L16,22 L17,22 L17,24 L18,24 L18,26 L19,26 L19,27 L15,27 L15,26 L14,26 L14,24 L13,24 L13,22 L12,22 L12,20 L11,20 L11,18 L10,18 L10,17 L9,17 L9,16 L7,16 L7,15 L4,15 L4,27 L0,27 Z M4,3 L4,12 L12,12 L12,11 L13,11 L13,10 L14,10 L14,5 L13,5 L13,4 L12,4 L12,3 Z " fill="#000000" transform="translate(873,109)"/>
<path d="M0,0 L4,0 L4,37 L36,37 L36,56 L4,56 L4,136 L5,136 L5,140 L6,140 L6,143 L7,143 L7,144 L8,144 L8,146 L9,146 L9,147 L10,147 L10,148 L12,148 L12,149 L14,149 L14,150 L18,150 L18,151 L26,151 L26,150 L30,150 L30,149 L32,149 L32,148 L34,148 L34,147 L36,147 L36,165 L35,165 L35,166 L32,166 L32,167 L29,167 L29,168 L23,168 L23,169 L10,169 L10,168 L5,168 L5,167 L2,167 L2,166 L-1,166 L-1,165 L-3,165 L-3,164 L-4,164 L-4,163 L-6,163 L-6,162 L-7,162 L-7,161 L-8,161 L-8,160 L-9,160 L-9,159 L-10,159 L-10,158 L-11,158 L-11,156 L-12,156 L-12,154 L-13,154 L-13,152 L-14,152 L-14,150 L-15,150 L-15,147 L-16,147 L-16,143 L-17,143 L-17,56 L-39,56 L-39,37 L-17,37 L-17,6 L-15,6 L-15,5 L-12,5 L-12,4 L-9,4 L-9,3 L-6,3 L-6,2 L-3,2 L-3,1 L0,1 Z " fill="#000000" transform="translate(648,114)"/>
<path d="M0,0 L9,0 L9,1 L15,1 L15,2 L17,2 L17,24 L15,24 L15,23 L14,23 L14,22 L11,22 L11,21 L7,21 L7,20 L-4,20 L-4,21 L-8,21 L-8,22 L-10,22 L-10,23 L-12,23 L-12,24 L-13,24 L-13,25 L-14,25 L-14,26 L-16,26 L-16,27 L-17,27 L-17,28 L-18,28 L-18,30 L-19,30 L-19,31 L-20,31 L-20,32 L-21,32 L-21,34 L-22,34 L-22,35 L-23,35 L-23,37 L-24,37 L-24,39 L-25,39 L-25,41 L-26,41 L-26,44 L-27,44 L-27,48 L-28,48 L-28,53 L-29,53 L-29,131 L-51,131 L-51,3 L-29,3 L-29,26 L-28,26 L-28,23 L-27,23 L-27,21 L-26,21 L-26,19 L-25,19 L-25,18 L-24,18 L-24,16 L-23,16 L-23,15 L-22,15 L-22,13 L-21,13 L-21,12 L-20,12 L-20,11 L-19,11 L-19,10 L-18,10 L-18,9 L-17,9 L-17,8 L-16,8 L-16,7 L-14,7 L-14,6 L-13,6 L-13,5 L-11,5 L-11,4 L-9,4 L-9,3 L-7,3 L-7,2 L-4,2 L-4,1 L0,1 Z " fill="#000000" transform="translate(316,149)"/>
<path d="M0,0 L22,0 L22,1 L27,1 L27,2 L30,2 L30,3 L33,3 L33,4 L35,4 L35,5 L37,5 L37,6 L39,6 L39,7 L40,7 L40,8 L42,8 L42,9 L43,9 L43,10 L44,10 L44,11 L46,11 L46,12 L47,12 L47,13 L48,13 L48,14 L49,14 L49,16 L50,16 L50,17 L51,17 L51,18 L52,18 L52,19 L53,19 L53,21 L54,21 L54,22 L55,22 L55,24 L56,24 L56,26 L57,26 L57,28 L58,28 L58,31 L59,31 L59,33 L60,33 L60,36 L61,36 L61,40 L62,40 L62,46 L63,46 L63,55 L64,55 L64,72 L-27,72 L-27,77 L-26,77 L-26,84 L-25,84 L-25,88 L-24,88 L-24,91 L-23,91 L-23,94 L-22,94 L-22,96 L-21,96 L-21,98 L-20,98 L-20,99 L-19,99 L-19,101 L-18,101 L-18,102 L-17,102 L-17,104 L-16,104 L-16,105 L-15,105 L-15,106 L-14,106 L-14,107 L-12,107 L-12,108 L-11,108 L-11,109 L-10,109 L-10,110 L-8,110 L-8,111 L-7,111 L-7,112 L-5,112 L-5,113 L-2,113 L-2,114 L1,114 L1,115 L5,115 L5,116 L24,116 L24,115 L29,115 L29,114 L33,114 L33,113 L36,113 L36,112 L38,112 L38,111 L41,111 L41,110 L43,110 L43,109 L44,109 L44,108 L46,108 L46,107 L48,107 L48,106 L49,106 L49,105 L51,105 L51,104 L52,104 L52,103 L54,103 L54,102 L55,102 L55,122 L54,122 L54,123 L53,123 L53,124 L51,124 L51,125 L49,125 L49,126 L47,126 L47,127 L45,127 L45,128 L43,128 L43,129 L40,129 L40,130 L38,130 L38,131 L34,131 L34,132 L30,132 L30,133 L24,133 L24,134 L-2,134 L-2,133 L-7,133 L-7,132 L-10,132 L-10,131 L-13,131 L-13,130 L-16,130 L-16,129 L-18,129 L-18,128 L-20,128 L-20,127 L-22,127 L-22,126 L-23,126 L-23,125 L-25,125 L-25,124 L-26,124 L-26,123 L-27,123 L-27,122 L-29,122 L-29,121 L-30,121 L-30,120 L-31,120 L-31,119 L-32,119 L-32,118 L-33,118 L-33,117 L-34,117 L-34,115 L-35,115 L-35,114 L-36,114 L-36,113 L-37,113 L-37,112 L-38,112 L-38,110 L-39,110 L-39,108 L-40,108 L-40,106 L-41,106 L-41,104 L-42,104 L-42,102 L-43,102 L-43,100 L-44,100 L-44,97 L-45,97 L-45,94 L-46,94 L-46,90 L-47,90 L-47,85 L-48,85 L-48,77 L-49,77 L-49,58 L-48,58 L-48,51 L-47,51 L-47,46 L-46,46 L-46,43 L-45,43 L-45,40 L-44,40 L-44,37 L-43,37 L-43,35 L-42,35 L-42,33 L-41,33 L-41,31 L-40,31 L-40,29 L-39,29 L-39,27 L-38,27 L-38,26 L-37,26 L-37,24 L-36,24 L-36,23 L-35,23 L-35,22 L-34,22 L-34,20 L-33,20 L-33,19 L-32,19 L-32,18 L-31,18 L-31,17 L-30,17 L-30,16 L-29,16 L-29,15 L-28,15 L-28,14 L-27,14 L-27,13 L-26,13 L-26,12 L-25,12 L-25,11 L-23,11 L-23,10 L-22,10 L-22,9 L-21,9 L-21,8 L-19,8 L-19,7 L-17,7 L-17,6 L-15,6 L-15,5 L-13,5 L-13,4 L-11,4 L-11,3 L-8,3 L-8,2 L-5,2 L-5,1 L0,1 Z M2,18 L2,19 L-1,19 L-1,20 L-4,20 L-4,21 L-6,21 L-6,22 L-7,22 L-7,23 L-9,23 L-9,24 L-10,24 L-10,25 L-12,25 L-12,26 L-13,26 L-13,27 L-14,27 L-14,28 L-15,28 L-15,29 L-16,29 L-16,31 L-17,31 L-17,32 L-18,32 L-18,33 L-19,33 L-19,35 L-20,35 L-20,36 L-21,36 L-21,38 L-22,38 L-22,40 L-23,40 L-23,43 L-24,43 L-24,46 L-25,46 L-25,49 L-26,49 L-26,54 L42,54 L42,49 L41,49 L41,42 L40,42 L40,39 L39,39 L39,36 L38,36 L38,34 L37,34 L37,32 L36,32 L36,30 L35,30 L35,29 L34,29 L34,28 L33,28 L33,26 L32,26 L32,25 L30,25 L30,24 L29,24 L29,23 L28,23 L28,22 L26,22 L26,21 L24,21 L24,20 L22,20 L22,19 L18,19 L18,18 Z " fill="#000000" transform="translate(398,149)"/>
<path d="M0,0 L26,0 L26,1 L31,1 L31,2 L34,2 L34,3 L37,3 L37,4 L40,4 L40,5 L42,5 L42,6 L43,6 L43,27 L41,27 L41,26 L39,26 L39,25 L38,25 L38,24 L36,24 L36,23 L34,23 L34,22 L32,22 L32,21 L29,21 L29,20 L26,20 L26,19 L22,19 L22,18 L3,18 L3,19 L-1,19 L-1,20 L-4,20 L-4,21 L-6,21 L-6,22 L-8,22 L-8,23 L-10,23 L-10,24 L-12,24 L-12,25 L-13,25 L-13,26 L-14,26 L-14,27 L-16,27 L-16,28 L-17,28 L-17,29 L-18,29 L-18,30 L-19,30 L-19,31 L-20,31 L-20,32 L-21,32 L-21,34 L-22,34 L-22,35 L-23,35 L-23,37 L-24,37 L-24,38 L-25,38 L-25,40 L-26,40 L-26,42 L-27,42 L-27,44 L-28,44 L-28,46 L-29,46 L-29,49 L-30,49 L-30,53 L-31,53 L-31,58 L-32,58 L-32,79 L-31,79 L-31,84 L-30,84 L-30,87 L-29,87 L-29,90 L-28,90 L-28,93 L-27,93 L-27,95 L-26,95 L-26,96 L-25,96 L-25,98 L-24,98 L-24,100 L-23,100 L-23,101 L-22,101 L-22,102 L-21,102 L-21,103 L-20,103 L-20,104 L-19,104 L-19,105 L-18,105 L-18,106 L-17,106 L-17,107 L-16,107 L-16,108 L-15,108 L-15,109 L-13,109 L-13,110 L-12,110 L-12,111 L-10,111 L-10,112 L-8,112 L-8,113 L-6,113 L-6,114 L-3,114 L-3,115 L2,115 L2,116 L20,116 L20,115 L24,115 L24,114 L27,114 L27,113 L30,113 L30,112 L32,112 L32,111 L34,111 L34,110 L36,110 L36,109 L37,109 L37,108 L39,108 L39,107 L40,107 L40,106 L42,106 L42,105 L43,105 L43,126 L41,126 L41,127 L39,127 L39,128 L37,128 L37,129 L35,129 L35,130 L32,130 L32,131 L29,131 L29,132 L25,132 L25,133 L20,133 L20,134 L-4,134 L-4,133 L-9,133 L-9,132 L-13,132 L-13,131 L-16,131 L-16,130 L-18,130 L-18,129 L-21,129 L-21,128 L-23,128 L-23,127 L-25,127 L-25,126 L-26,126 L-26,125 L-28,125 L-28,124 L-29,124 L-29,123 L-30,123 L-30,122 L-32,122 L-32,121 L-33,121 L-33,120 L-34,120 L-34,119 L-35,119 L-35,118 L-36,118 L-36,117 L-37,117 L-37,116 L-38,116 L-38,115 L-39,115 L-39,114 L-40,114 L-40,113 L-41,113 L-41,111 L-42,111 L-42,110 L-43,110 L-43,109 L-44,109 L-44,107 L-45,107 L-45,105 L-46,105 L-46,103 L-47,103 L-47,101 L-48,101 L-48,99 L-49,99 L-49,97 L-50,97 L-50,94 L-51,94 L-51,91 L-52,91 L-52,86 L-53,86 L-53,80 L-54,80 L-54,59 L-53,59 L-53,52 L-52,52 L-52,48 L-51,48 L-51,44 L-50,44 L-50,41 L-49,41 L-49,39 L-48,39 L-48,36 L-47,36 L-47,34 L-46,34 L-46,32 L-45,32 L-45,30 L-44,30 L-44,29 L-43,29 L-43,27 L-42,27 L-42,26 L-41,26 L-41,24 L-40,24 L-40,23 L-39,23 L-39,22 L-38,22 L-38,21 L-37,21 L-37,20 L-36,20 L-36,19 L-35,19 L-35,18 L-34,18 L-34,17 L-33,17 L-33,16 L-32,16 L-32,15 L-31,15 L-31,14 L-30,14 L-30,13 L-29,13 L-29,12 L-28,12 L-28,11 L-26,11 L-26,10 L-25,10 L-25,9 L-23,9 L-23,8 L-21,8 L-21,7 L-19,7 L-19,6 L-17,6 L-17,5 L-15,5 L-15,4 L-12,4 L-12,3 L-9,3 L-9,2 L-5,2 L-5,1 L0,1 Z " fill="#000000" transform="translate(544,149)"/>
<path d="M0,0 L6,0 L6,132 L-8,132 L-8,21 L-10,21 L-10,22 L-11,22 L-11,23 L-12,23 L-12,24 L-14,24 L-14,25 L-15,25 L-15,26 L-17,26 L-17,27 L-19,27 L-19,28 L-21,28 L-21,29 L-23,29 L-23,30 L-25,30 L-25,31 L-27,31 L-27,32 L-29,32 L-29,33 L-32,33 L-32,34 L-34,34 L-34,35 L-38,35 L-38,20 L-34,20 L-34,19 L-32,19 L-32,18 L-29,18 L-29,17 L-27,17 L-27,16 L-24,16 L-24,15 L-22,15 L-22,14 L-20,14 L-20,13 L-18,13 L-18,12 L-17,12 L-17,11 L-15,11 L-15,10 L-13,10 L-13,9 L-11,9 L-11,8 L-10,8 L-10,7 L-8,7 L-8,6 L-7,6 L-7,5 L-5,5 L-5,4 L-4,4 L-4,3 L-3,3 L-3,2 L-1,2 L-1,1 L0,1 Z " fill="#000000" transform="translate(888,149)"/>
<path d="M0,0 L20,0 L20,1 L24,1 L24,2 L27,2 L27,3 L29,3 L29,4 L31,4 L31,5 L33,5 L33,6 L34,6 L34,7 L36,7 L36,8 L37,8 L37,9 L38,9 L38,10 L39,10 L39,11 L40,11 L40,12 L41,12 L41,14 L42,14 L42,15 L43,15 L43,17 L44,17 L44,19 L45,19 L45,22 L46,22 L46,25 L47,25 L47,45 L46,45 L46,49 L45,49 L45,52 L44,52 L44,54 L43,54 L43,56 L42,56 L42,58 L41,58 L41,60 L40,60 L40,61 L39,61 L39,63 L38,63 L38,64 L37,64 L37,65 L36,65 L36,66 L35,66 L35,67 L34,67 L34,68 L33,68 L33,69 L32,69 L32,70 L31,70 L31,71 L30,71 L30,72 L29,72 L29,73 L28,73 L28,74 L27,74 L27,75 L26,75 L26,76 L24,76 L24,77 L23,77 L23,78 L22,78 L22,79 L20,79 L20,80 L19,80 L19,81 L18,81 L18,82 L16,82 L16,83 L15,83 L15,84 L13,84 L13,85 L12,85 L12,86 L11,86 L11,87 L9,87 L9,88 L8,88 L8,89 L7,89 L7,90 L5,90 L5,91 L4,91 L4,92 L3,92 L3,93 L2,93 L2,94 L0,94 L0,95 L-1,95 L-1,96 L-2,96 L-2,97 L-3,97 L-3,98 L-4,98 L-4,99 L-5,99 L-5,100 L-6,100 L-6,101 L-7,101 L-7,103 L-8,103 L-8,104 L-9,104 L-9,106 L-10,106 L-10,109 L-11,109 L-11,113 L-12,113 L-12,117 L52,117 L52,131 L-27,131 L-27,115 L-26,115 L-26,110 L-25,110 L-25,107 L-24,107 L-24,105 L-23,105 L-23,103 L-22,103 L-22,101 L-21,101 L-21,99 L-20,99 L-20,98 L-19,98 L-19,96 L-18,96 L-18,95 L-17,95 L-17,94 L-16,94 L-16,93 L-15,93 L-15,92 L-14,92 L-14,91 L-13,91 L-13,90 L-12,90 L-12,89 L-11,89 L-11,88 L-10,88 L-10,87 L-9,87 L-9,86 L-8,86 L-8,85 L-6,85 L-6,84 L-5,84 L-5,83 L-4,83 L-4,82 L-3,82 L-3,81 L-1,81 L-1,80 L0,80 L0,79 L1,79 L1,78 L3,78 L3,77 L4,77 L4,76 L5,76 L5,75 L7,75 L7,74 L8,74 L8,73 L9,73 L9,72 L11,72 L11,71 L12,71 L12,70 L13,70 L13,69 L14,69 L14,68 L16,68 L16,67 L17,67 L17,66 L18,66 L18,65 L19,65 L19,64 L20,64 L20,63 L21,63 L21,62 L22,62 L22,61 L23,61 L23,60 L24,60 L24,59 L25,59 L25,57 L26,57 L26,56 L27,56 L27,54 L28,54 L28,52 L29,52 L29,50 L30,50 L30,48 L31,48 L31,44 L32,44 L32,28 L31,28 L31,25 L30,25 L30,23 L29,23 L29,22 L28,22 L28,20 L27,20 L27,19 L26,19 L26,18 L25,18 L25,17 L24,17 L24,16 L22,16 L22,15 L20,15 L20,14 L18,14 L18,13 L14,13 L14,12 L4,12 L4,13 L0,13 L0,14 L-3,14 L-3,15 L-6,15 L-6,16 L-8,16 L-8,17 L-9,17 L-9,18 L-11,18 L-11,19 L-13,19 L-13,20 L-14,20 L-14,21 L-15,21 L-15,22 L-17,22 L-17,23 L-18,23 L-18,24 L-19,24 L-19,25 L-20,25 L-20,26 L-21,26 L-21,27 L-22,27 L-22,11 L-20,11 L-20,10 L-19,10 L-19,9 L-18,9 L-18,8 L-17,8 L-17,7 L-15,7 L-15,6 L-14,6 L-14,5 L-12,5 L-12,4 L-10,4 L-10,3 L-7,3 L-7,2 L-4,2 L-4,1 L0,1 Z " fill="#000000" transform="translate(936,150)"/>
<path d="M0,0 L20,0 L20,1 L21,1 L21,129 L-1,129 L-1,1 L0,1 Z " fill="#000000" transform="translate(197,151)"/>
</svg>
